<?xml version="1.0" encoding="UTF-8"?>
<svg width="1142px" height="1278px" viewBox="0 0 1142 1278" version="1.1" xmlns="http://www.w3.org/2000/svg" xmlns:xlink="http://www.w3.org/1999/xlink">
    <!-- Generator: Sketch 63.1 (92452) - https://sketch.com -->
    <title>Path Copy</title>
    <desc>Created with Sketch.</desc>
    <g id="Dashboard" stroke="none" stroke-width="1" fill="none" fill-rule="evenodd" opacity="0.2">
        <path d="M468.564101,275.468592 C414.907264,255.075502 358.206586,238.040701 300.324897,240.182219 C215.21909,243.32149 133.522386,291.177111 93.5141343,361.445663 C59.5692145,420.982291 55.3808887,490.764135 40.7582745,556.834825 C22.7630839,638.224669 -11.7662534,715.599166 -48.6332609,791.245848 C-68.4304056,831.886015 -89.3233333,873.402257 -92.5741559,917.948261 C-97.0790412,979.796754 -65.4596164,1041.42623 -15.8693517,1082.56527 C33.720913,1123.70432 99.5774664,1145.41152 165.677527,1150.14476 C200.852159,1152.66348 237.609588,1150.32727 268.851576,1135.02029 C301.907695,1118.82506 326.002743,1089.56171 359.19279,1073.59767 C389.947764,1058.80173 425.92597,1056.73321 460.455307,1058.65571 C505.538813,1061.16517 550.043322,1070.01297 592.655429,1084.93798 C640.918579,1101.87544 685.796977,1126.41772 733.889671,1143.59853 C781.982366,1160.77934 835.846184,1170.3675 885.059013,1156.03393 C931.325403,1142.56427 967.8515,1109.85746 1000.78586,1076.73694 C1054.63824,1022.67798 1103.99784,964.327665 1148.37565,902.264076 C1178.09572,860.638325 1205.75815,816.725042 1218.89537,768.212364 C1244.02532,675.457875 1209.44728,570.815529 1132.75465,507.470407 C1069.21142,454.991054 983.935158,432.213092 900.46085,418.390568 C824.340464,405.784816 736.324745,405.006082 666.255515,372.153252 C599.437107,340.784884 538.633331,302.115887 468.564101,275.468592 Z" id="Path-Copy" fill="#1B51E5" fill-rule="nonzero" transform="translate(567.000000, 701.500000) rotate(-233.000000) translate(-567.000000, -701.500000) "></path>
    </g>
</svg>