<?xml version="1.0" encoding="utf-8"?>
<!-- Generator: Adobe Illustrator 21.1.0, SVG Export Plug-In . SVG Version: 6.00 Build 0)  -->
<svg version="1.1" id="illu-02" xmlns="http://www.w3.org/2000/svg" xmlns:xlink="http://www.w3.org/1999/xlink" x="0px" y="0px"
	 viewBox="0 0 345.7 319.3" style="enable-background:new 0 0 345.7 319.3;" xml:space="preserve">
<style type="text/css">
	#illu-02 .st0{opacity:0.1;}
	#illu-02 .st1{fill:#173D7A;}
	#illu-02 .st2{fill:#396CAA;}
	#illu-02 .st3{fill:#274F89;}
	#illu-02 .st4{fill:#D4ECFF;}
	#illu-02 .st5{fill:#FFFFFF;}
	#illu-02 .st6{fill:#5793CE;}
	#illu-02 .st7{opacity:0.4;fill:#D4ECFF;enable-background:new    ;}
	#illu-02 .st8{fill:#B2D3EA;}
	#illu-02 .st9{fill:#C13D1A;}
	#illu-02 .st10{fill:#EF602E;}
	#illu-02 .st11{fill:#FFC2B0;}
	#illu-02 .st12{fill:#EA9C92;}
	#illu-02 .st13{fill:#FF2C9C;}
	#illu-02 .st14{fill:#D3008D;}
</style>
<g>
	<g>
		<g>
			<path class="st0" d="M192.6,295.7L58.2,218.2c-3.8-2.1-3.3-6,1.1-8.6l91.5-52.8c4.4-2.6,11-2.8,14.8-0.6l134.4,77.5
				c3.8,2.1,3.3,6-1.1,8.6l-91.5,52.9C203,297.6,196.3,298,192.6,295.7z"/>
			<g>
				<path class="st1" d="M304.9,81.2L168.3,2.4c-1.7-1-3.3-1.2-4.7-0.6l0,0l-0.2,0.1c0,0,0,0-0.1,0L158.9,4l4.8,2.4
					c0,0.1,0,0.2,0,0.2v112.2c0,5.6,3.4,12.1,7.7,14.6L304.3,210l0.8,6.2l4.8-2.4c1.6-1,2.6-3.1,2.6-6.1V95.6
					C312.7,90.2,309.2,83.7,304.9,81.2z"/>
				<path class="st2" d="M304.9,81.2L168.3,2.4c-1.7-1-3.3-1.2-4.7-0.6l0,0l-0.2,0.1c0,0,0,0-0.1,0L158.9,4l4.8,2.4
					c0,0.1,0,0.2,0,0.2v73.9l62.1,49.1l84.4-42.5C309,84.6,307,82.4,304.9,81.2z"/>
				<path class="st3" d="M307.2,82.9l-13.4,5.6l10.1,7.8l8.5-3.5C311.6,89.1,309.7,85.4,307.2,82.9z"/>
				<path class="st4" d="M300.5,215.8L163.9,137c-4.3-2.5-7.7-9-7.7-14.6V10.2c0-5.6,3.4-8.2,7.7-5.7l136.5,78.8
					c4.3,2.5,7.7,9,7.7,14.6v112.2C308.2,215.7,304.8,218.3,300.5,215.8z"/>
				<path class="st5" d="M295.9,207.4l-127.5-73.6c-4-2.3-7.1-8.3-7.1-13.4V17.8c0-5.1,3.2-7.5,7.1-5.3l127.5,73.6
					c4,2.3,7.1,8.3,7.1,13.4v102.6C303.1,207.4,299.8,209.7,295.9,207.4z"/>
				<path class="st5" d="M295.9,207.4l-127.5-73.6c-4-2.3-7.1-8.3-7.1-13.4V17.8c0-5.1,3.2-7.5,7.1-5.3l127.5,73.6
					c4,2.3,7.1,8.3,7.1,13.4v102.6C303.1,207.4,299.8,209.7,295.9,207.4z"/>
			</g>
			<path class="st1" d="M302.5,219.3l-18.3-2.5l-118.5-68.4c-3.8-2.1-10.4-1.9-14.8,0.6l-84.1,48.5l-11.2-1.5v6.3l0,0
				c-0.1,1.5,0.8,2.9,2.6,3.9l134.4,77.5c3.8,2.1,10.4,1.9,14.8-0.6l91.5-52.8c2.5-1.4,3.6-3.2,3.6-4.9l0,0V219.3z"/>
			<path class="st2" d="M213.4,176l-8.5-4.8h-92.6l-45.6,26.4l-11.2-1.5v6.3l0,0c-0.1,1.5,0.8,2.9,2.6,3.9l134.4,77.5
				c2,1.2,4.8,1.6,7.6,1.4L213.4,176z"/>
			<path class="st6" d="M60.6,196.7l-4.9-0.6v6.3l0,0c-0.1,1.5,0.8,2.9,2.6,3.9l2.4,1.4V196.7z"/>
			<path class="st3" d="M193.9,284.4c3.6,1.4,8.8,1.1,12.5-0.8v-14h-12.5V284.4z"/>
			<path class="st4" d="M192.6,277.5L58.2,199.9c-3.8-2.1-3.3-6,1.1-8.6l91.5-52.8c4.4-2.6,11-2.8,14.8-0.6l134.4,77.5
				c3.8,2.1,3.3,6-1.1,8.6l-91.5,52.9C203,279.4,196.3,279.7,192.6,277.5z"/>
			<path class="st5" d="M298.9,221.8l-91.5,52.8c-4.4,2.6-11,2.8-14.8,0.6L58.2,197.7c-1.3-0.8-2-1.6-2.4-2.6
				c-0.6,1.8,0.2,3.6,2.4,4.9l134.4,77.4c3.8,2.1,10.4,1.9,14.8-0.6l91.5-52.8c3-1.7,4.1-4,3.4-6
				C301.9,219.5,300.7,220.7,298.9,221.8z"/>
			<g>
				<path class="st1" d="M115.4,174.3l-6.1-3.5c-0.5-0.3-0.4-0.8,0.1-1.1l7.2-4.2c0.5-0.3,1.4-0.3,1.9-0.1l6.1,3.5
					c0.5,0.3,0.4,0.8-0.1,1.1l-7.2,4.2C116.7,174.5,115.9,174.5,115.4,174.3z"/>
				<path class="st1" d="M124.7,179.7l-6.1-3.5c-0.5-0.3-0.4-0.8,0.1-1.1l7.2-4.2c0.5-0.3,1.4-0.3,1.9-0.1l6.1,3.5
					c0.5,0.3,0.4,0.8-0.1,1.1l-7.2,4.2C126.1,180,125.2,180,124.7,179.7z"/>
				<path class="st1" d="M134.1,185.1l-6.1-3.5c-0.5-0.3-0.4-0.8,0.1-1.1l7.2-4.2c0.5-0.3,1.4-0.3,1.9-0.1l6.1,3.5
					c0.5,0.3,0.4,0.8-0.1,1.1l-7.2,4.2C135.5,185.3,134.7,185.5,134.1,185.1z"/>
				<path class="st1" d="M147.1,180.6l-6.1-3.5c-0.5-0.3-0.4-0.8,0.1-1.1l6-3.4c0.5-0.3,1.4-0.3,1.9-0.1l6.1,3.5
					c0.5,0.3,0.4,0.8-0.1,1.1l-6,3.4C148.5,180.8,147.6,180.9,147.1,180.6z"/>
				<path class="st1" d="M156.5,186.1l-6.1-3.5c-0.5-0.3-0.4-0.8,0.1-1.1l6-3.4c0.5-0.3,1.4-0.3,1.9-0.1l6.1,3.5
					c0.5,0.3,0.4,0.8-0.1,1.1l-6,3.4C157.8,186.3,157,186.3,156.5,186.1z"/>
				<path class="st1" d="M165.9,191.5l-6.1-3.5c-0.5-0.3-0.4-0.8,0.1-1.1l6-3.4c0.5-0.3,1.4-0.3,1.9-0.1l6.1,3.5
					c0.5,0.3,0.4,0.8-0.1,1.1l-6,3.4C167.3,191.8,166.4,191.8,165.9,191.5z"/>
				<path class="st1" d="M175.3,196.9l-6.1-3.5c-0.5-0.3-0.4-0.8,0.1-1.1l6-3.4c0.5-0.3,1.4-0.3,1.9-0.1l6.1,3.5
					c0.5,0.3,0.4,0.8-0.1,1.1l-6,3.4C176.6,197.1,175.7,197.1,175.3,196.9z"/>
				<path class="st1" d="M184.6,202.3l-6.1-3.5c-0.5-0.3-0.4-0.8,0.1-1.1l6-3.4c0.5-0.3,1.4-0.3,1.9-0.1l6.1,3.5
					c0.5,0.3,0.4,0.8-0.1,1.1l-6,3.4C186,202.6,185.2,202.6,184.6,202.3z"/>
				<path class="st1" d="M194.1,207.8l-6.1-3.5c-0.5-0.3-0.4-0.8,0.1-1.1l6-3.4c0.5-0.3,1.4-0.3,1.9-0.1l6.1,3.5
					c0.5,0.3,0.4,0.8-0.1,1.1l-6,3.4C195.4,208,194.5,208,194.1,207.8z"/>
				<path class="st1" d="M203.4,213.1l-6.1-3.5c-0.5-0.3-0.4-0.8,0.1-1.1l6-3.4c0.5-0.3,1.4-0.3,1.9-0.1l6.1,3.5
					c0.5,0.3,0.4,0.8-0.1,1.1l-6,3.4C204.8,213.4,204,213.4,203.4,213.1z"/>
				<path class="st1" d="M212.9,218.6l-6.1-3.5c-0.5-0.3-0.4-0.8,0.1-1.1l6-3.4c0.5-0.3,1.4-0.3,1.9-0.1l6.1,3.5
					c0.5,0.3,0.4,0.8-0.1,1.1l-6,3.4C214.1,218.8,213.3,218.9,212.9,218.6z"/>
				<path class="st1" d="M222.2,224l-6.1-3.5c-0.5-0.3-0.4-0.8,0.1-1.1l6-3.4c0.5-0.3,1.4-0.3,1.9-0.1l6.1,3.5
					c0.5,0.3,0.4,0.8-0.1,1.1l-6,3.4C223.6,224.3,222.7,224.3,222.2,224z"/>
				<path class="st1" d="M231.6,229.4l-6.1-3.5c-0.5-0.3-0.4-0.8,0.1-1.1l6-3.4c0.5-0.3,1.4-0.3,1.9-0.1l6.1,3.5
					c0.5,0.3,0.4,0.8-0.1,1.1l-6,3.4C232.9,229.6,232.1,229.7,231.6,229.4z"/>
				<path class="st2" d="M160.9,178.1l-6.1-3.5c-0.5-0.3-0.4-0.8,0.1-1.1l6-3.4c0.5-0.3,1.4-0.3,1.9-0.1l6.1,3.5
					c0.5,0.3,0.4,0.8-0.1,1.1l-6,3.4C162.3,178.4,161.5,178.4,160.9,178.1z"/>
				<path class="st2" d="M151.4,172.6l-6.1-3.5c-0.5-0.3-0.4-0.8,0.1-1.1l6-3.4c0.5-0.3,1.4-0.3,1.9-0.1l6.1,3.5
					c0.5,0.3,0.4,0.8-0.1,1.1l-6,3.4C152.8,172.8,151.9,172.9,151.4,172.6z"/>
				<path class="st1" d="M141.9,167.1l-13.1-7.5c-0.5-0.3-0.4-0.8,0.1-1.1l6-3.4c0.5-0.3,1.4-0.3,1.9-0.1l13.1,7.5
					c0.5,0.3,0.4,0.8-0.1,1.1l-6,3.4C143.2,167.3,142.4,167.3,141.9,167.1z"/>
				<path class="st1" d="M148.5,160.4l-10.6-6.1c-0.5-0.3-0.4-0.8,0.1-1.1l6-3.4c0.5-0.3,1.4-0.3,1.9-0.1l10.6,6.1
					c0.5,0.3,0.4,0.8-0.1,1.1l-6,3.4C149.9,160.6,149,160.7,148.5,160.4z"/>
				<path class="st2" d="M170.4,183.5l-6.1-3.5c-0.5-0.3-0.4-0.8,0.1-1.1l6-3.4c0.5-0.3,1.4-0.3,1.9-0.1l6.1,3.5
					c0.5,0.3,0.4,0.8-0.1,1.1l-6,3.4C171.7,183.7,170.8,183.7,170.4,183.5z"/>
				<path class="st1" d="M179.7,188.9l-6.1-3.5c-0.5-0.3-0.4-0.8,0.1-1.1l6-3.4c0.5-0.3,1.4-0.3,1.9-0.1l6.1,3.5
					c0.5,0.3,0.4,0.8-0.1,1.1l-6,3.4C181.1,189.2,180.3,189.2,179.7,188.9z"/>
				<path class="st1" d="M189.2,194.4l-6.1-3.5c-0.5-0.3-0.4-0.8,0.1-1.1l6-3.4c0.5-0.3,1.4-0.3,1.9-0.1l6.1,3.5
					c0.5,0.3,0.4,0.8-0.1,1.1l-6,3.4C190.4,194.6,189.6,194.6,189.2,194.4z"/>
				<path class="st1" d="M198.5,199.7l-6.1-3.5c-0.5-0.3-0.4-0.8,0.1-1.1l6-3.4c0.5-0.3,1.4-0.3,1.9-0.1l6.1,3.5
					c0.5,0.3,0.4,0.8-0.1,1.1l-6,3.4C199.9,200,199,200,198.5,199.7z"/>
				<path class="st1" d="M207.9,205.2l-6.1-3.5c-0.5-0.3-0.4-0.8,0.1-1.1l6-3.4c0.5-0.3,1.4-0.3,1.9-0.1l6.1,3.5
					c0.5,0.3,0.4,0.8-0.1,1.1l-6.1,3.4C209.2,205.4,208.4,205.5,207.9,205.2z"/>
				<path class="st1" d="M217.3,210.6l-6.1-3.5c-0.5-0.3-0.4-0.8,0.1-1.1l6-3.4c0.5-0.3,1.4-0.3,1.9-0.1l6.1,3.5
					c0.5,0.3,0.4,0.8-0.1,1.1l-6,3.4C218.6,210.9,217.8,210.9,217.3,210.6z"/>
				<path class="st1" d="M226.7,216l-6.1-3.5c-0.5-0.3-0.4-0.8,0.1-1.1l6-3.4c0.5-0.3,1.4-0.3,1.9-0.1l6.1,3.5
					c0.5,0.3,0.4,0.8-0.1,1.1l-6,3.4C228,216.2,227.1,216.3,226.7,216z"/>
				<path class="st1" d="M236,221.5l-6.1-3.5c-0.5-0.3-0.4-0.8,0.1-1.1l6-3.4c0.5-0.3,1.4-0.3,1.9-0.1l6.1,3.5
					c0.5,0.3,0.4,0.8-0.1,1.1l-6,3.4C237.4,221.7,236.6,221.7,236,221.5z"/>
				<path class="st1" d="M245.5,226.9l-6.1-3.5c-0.5-0.3-0.4-0.8,0.1-1.1l6-3.4c0.5-0.3,1.4-0.3,1.9-0.1l6.1,3.5
					c0.5,0.3,0.4,0.8-0.1,1.1l-6,3.4C246.7,227.1,245.9,227.2,245.5,226.9z"/>
				<path class="st1" d="M262.1,236.5l-13.3-7.6c-0.5-0.3-0.4-0.8,0.1-1.1l6-3.4c0.5-0.3,1.4-0.3,1.9-0.1l13.3,7.6
					c0.5,0.3,0.4,0.8-0.1,1.1l-6,3.4C263.5,236.7,262.6,236.8,262.1,236.5z"/>
				<path class="st1" d="M280.4,226l-11.2-6.4c-0.5-0.3-0.4-0.8,0.1-1.1l6-3.4c0.5-0.3,1.4-0.3,1.9-0.1l11.2,6.4
					c0.5,0.3,0.4,0.8-0.1,1.1l-6,3.4C281.7,226.2,280.9,226.2,280.4,226z"/>
				<path class="st1" d="M186.8,182.5l-6.1-3.5c-0.5-0.3-0.4-0.8,0.1-1.1l6-3.4c0.5-0.3,1.4-0.3,1.9-0.1l6.1,3.5
					c0.5,0.3,0.4,0.8-0.1,1.1l-6,3.4C188.1,182.7,187.2,182.8,186.8,182.5z"/>
				<path class="st1" d="M177.1,176.9l-6.1-3.5c-0.5-0.3-0.4-0.8,0.1-1.1l6-3.4c0.5-0.3,1.4-0.3,1.9-0.1l6.1,3.5
					c0.5,0.3,0.4,0.8-0.1,1.1l-6,3.4C178.5,177.1,177.7,177.2,177.1,176.9z"/>
				<path class="st2" d="M167.5,171.3l-6.1-3.5c-0.5-0.3-0.4-0.8,0.1-1.1l6-3.4c0.5-0.3,1.4-0.3,1.9-0.1l6.1,3.5
					c0.5,0.3,0.4,0.8-0.1,1.1l-6,3.4C168.9,171.6,168,171.6,167.5,171.3z"/>
				<path class="st1" d="M157.9,165.8l-6.1-3.5c-0.5-0.3-0.4-0.8,0.1-1.1l6-3.4c0.5-0.3,1.4-0.3,1.9-0.1l6.1,3.5
					c0.5,0.3,0.4,0.8-0.1,1.1l-6,3.4C159.2,166,158.4,166,157.9,165.8z"/>
				<path class="st1" d="M196.1,187.8l-6.1-3.5c-0.5-0.3-0.4-0.8,0.1-1.1l6-3.4c0.5-0.3,1.4-0.3,1.9-0.1l6.1,3.5
					c0.5,0.3,0.4,0.8-0.1,1.1l-6,3.4C197.5,188.1,196.7,188.1,196.1,187.8z"/>
				<path class="st1" d="M205.6,193.3l-6.1-3.5c-0.5-0.3-0.4-0.8,0.1-1.1l6-3.4c0.5-0.3,1.4-0.3,1.9-0.1l6.1,3.5
					c0.5,0.3,0.4,0.8-0.1,1.1l-6,3.4C206.8,193.5,206,193.6,205.6,193.3z"/>
				<path class="st1" d="M214.9,198.6l-6.1-3.5c-0.5-0.3-0.4-0.8,0.1-1.1l6-3.4c0.5-0.3,1.4-0.3,1.9-0.1l6.1,3.5
					c0.5,0.3,0.4,0.8-0.1,1.1l-6,3.4C216.3,199,215.4,199,214.9,198.6z"/>
				<path class="st1" d="M224.3,204.1l-6.1-3.5c-0.5-0.3-0.4-0.8,0.1-1.1l6-3.4c0.5-0.3,1.4-0.3,1.9-0.1l6.1,3.5
					c0.5,0.3,0.4,0.8-0.1,1.1l-6,3.4C225.6,204.3,224.8,204.4,224.3,204.1z"/>
				<path class="st1" d="M233.7,209.6l-6.1-3.5c-0.5-0.3-0.4-0.8,0.1-1.1l6-3.4c0.5-0.3,1.4-0.3,1.9-0.1l6.1,3.5
					c0.5,0.3,0.4,0.8-0.1,1.1l-6,3.4C235.1,209.8,234.2,209.8,233.7,209.6z"/>
				<path class="st1" d="M243.1,214.9l-6.1-3.5c-0.5-0.3-0.4-0.8,0.1-1.1l6-3.4c0.5-0.3,1.4-0.3,1.9-0.1l6.1,3.5
					c0.5,0.3,0.4,0.8-0.1,1.1l-6,3.4C244.4,215.2,243.6,215.3,243.1,214.9z"/>
				<path class="st1" d="M252.4,220.4l-6.1-3.5c-0.5-0.3-0.4-0.8,0.1-1.1l6-3.4c0.5-0.3,1.4-0.3,1.9-0.1l6.1,3.5
					c0.5,0.3,0.4,0.8-0.1,1.1l-6,3.4C253.8,220.6,253,220.6,252.4,220.4z"/>
				<path class="st1" d="M261.9,225.8l-6.1-3.5c-0.5-0.3-0.4-0.8,0.1-1.1l6-3.4c0.5-0.3,1.4-0.3,1.9-0.1l6.1,3.5
					c0.5,0.3,0.4,0.8-0.1,1.1l-6,3.4C263.3,226,262.4,226.1,261.9,225.8z"/>
				<path class="st1" d="M271.3,231.2l-6.1-3.5c-0.5-0.3-0.4-0.8,0.1-1.1l6-3.4c0.5-0.3,1.4-0.3,1.9-0.1l6.1,3.5
					c0.5,0.3,0.4,0.8-0.1,1.1l-6,3.4C272.6,231.5,271.7,231.5,271.3,231.2z"/>
				<path class="st1" d="M181.9,169l-6.1-3.5c-0.5-0.3-0.4-0.8,0.1-1.1l6-3.4c0.5-0.3,1.4-0.3,1.9-0.1l6.1,3.5
					c0.5,0.3,0.4,0.8-0.1,1.1l-6,3.4C183.1,169.3,182.3,169.4,181.9,169z"/>
				<path class="st1" d="M172.5,163.7l-6.1-3.5c-0.5-0.3-0.4-0.8,0.1-1.1l6-3.4c0.5-0.3,1.4-0.3,1.9-0.1l6.1,3.5
					c0.5,0.3,0.4,0.8-0.1,1.1l-6,3.4C173.8,163.9,173,163.9,172.5,163.7z"/>
				<path class="st1" d="M163.2,158.2l-6.1-3.5c-0.5-0.3-0.4-0.8,0.1-1.1l6-3.4c0.5-0.3,1.4-0.3,1.9-0.1l6.1,3.5
					c0.5,0.3,0.4,0.8-0.1,1.1l-6,3.4C164.5,158.5,163.6,158.5,163.2,158.2z"/>
				<path class="st1" d="M153.8,152.8l-6.1-3.5c-0.5-0.3-0.4-0.8,0.1-1.1l6-3.4c0.5-0.3,1.4-0.3,1.9-0.1l6.1,3.5
					c0.5,0.3,0.4,0.8-0.1,1.1l-6,3.4C155.2,153.1,154.3,153.2,153.8,152.8z"/>
				<path class="st1" d="M163.4,147.3l-6.1-3.5c-0.5-0.3-0.4-0.8,0.1-1.1l2-1.2c0.5-0.3,1.4-0.3,1.9-0.1l6.1,3.5
					c0.5,0.3,0.4,0.8-0.1,1.1l-2,1.2C164.8,147.6,163.9,147.6,163.4,147.3z"/>
				<path class="st1" d="M175.6,154.4l-6.1-3.5c-0.5-0.3-0.4-0.8,0.1-1.1l2-1.2c0.5-0.3,1.4-0.3,1.9-0.1l6.1,3.5
					c0.5,0.3,0.4,0.8-0.1,1.1l-2,1.2C176.9,154.6,176.1,154.7,175.6,154.4z"/>
				<path class="st1" d="M184.9,159.7l-6.1-3.5c-0.5-0.3-0.4-0.8,0.1-1.1l2-1.2c0.5-0.3,1.4-0.3,1.9-0.1l6.1,3.5
					c0.5,0.3,0.4,0.8-0.1,1.1l-2,1.2C186.3,159.9,185.4,160,184.9,159.7z"/>
				<path class="st1" d="M194.2,165.1l-6.1-3.5c-0.5-0.3-0.4-0.8,0.1-1.1l2-1.2c0.5-0.3,1.4-0.3,1.9-0.1l6.1,3.5
					c0.5,0.3,0.4,0.8-0.1,1.1l-2,1.2C195.6,165.3,194.7,165.4,194.2,165.1z"/>
				<path class="st1" d="M203.5,170.4l-6.1-3.5c-0.5-0.3-0.4-0.8,0.1-1.1l2-1.2c0.5-0.3,1.4-0.3,1.9-0.1l6.1,3.5
					c0.5,0.3,0.4,0.8-0.1,1.1l-2,1.2C204.8,170.7,204,170.8,203.5,170.4z"/>
				<path class="st1" d="M255.4,200.5l-6.1-3.5c-0.5-0.3-0.4-0.8,0.1-1.1l2-1.2c0.5-0.3,1.4-0.3,1.9-0.1l6.1,3.5
					c0.5,0.3,0.4,0.8-0.1,1.1l-2,1.2C256.8,200.7,256,200.7,255.4,200.5z"/>
				<path class="st1" d="M264.8,205.8l-6.1-3.5c-0.5-0.3-0.4-0.8,0.1-1.1l2-1.2c0.5-0.3,1.4-0.3,1.9-0.1l6.1,3.5
					c0.5,0.3,0.4,0.8-0.1,1.1l-2,1.2C266.1,206,265.2,206,264.8,205.8z"/>
				<path class="st1" d="M274,211.2l-6.1-3.5c-0.5-0.3-0.4-0.8,0.1-1.1l2-1.2c0.5-0.3,1.4-0.3,1.9-0.1l6.1,3.5
					c0.5,0.3,0.4,0.8-0.1,1.1l-2,1.2C275.4,211.4,274.5,211.5,274,211.2z"/>
				<path class="st1" d="M283.3,216.6l-6.1-3.5c-0.5-0.3-0.4-0.8,0.1-1.1l2-1.2c0.5-0.3,1.4-0.3,1.9-0.1l6.1,3.5
					c0.5,0.3,0.4,0.8-0.1,1.1l-2,1.2C284.7,216.8,283.9,216.9,283.3,216.6z"/>
				<path class="st1" d="M191.2,174.4l-6.1-3.5c-0.5-0.3-0.4-0.8,0.1-1.1l6-3.4c0.5-0.3,1.4-0.3,1.9-0.1l6.1,3.5
					c0.5,0.3,0.4,0.8-0.1,1.1l-6,3.4C192.6,174.7,191.7,174.7,191.2,174.4z"/>
				<path class="st1" d="M200.6,179.9l-6.1-3.5c-0.5-0.3-0.4-0.8,0.1-1.1l6-3.4c0.5-0.3,1.4-0.3,1.9-0.1l6.1,3.5
					c0.5,0.3,0.4,0.8-0.1,1.1l-6,3.4C201.9,180.1,201.1,180.2,200.6,179.9z"/>
				<path class="st1" d="M210,185.3l-6.1-3.5c-0.5-0.3-0.4-0.8,0.1-1.1l6-3.4c0.5-0.3,1.4-0.3,1.9-0.1l6.1,3.5
					c0.5,0.3,0.4,0.8-0.1,1.1l-6,3.4C211.4,185.6,210.5,185.6,210,185.3z"/>
				<path class="st1" d="M219.4,190.7l-6.1-3.5c-0.5-0.3-0.4-0.8,0.1-1.1l6-3.4c0.5-0.3,1.4-0.3,1.9-0.1l6.1,3.5
					c0.5,0.3,0.4,0.8-0.1,1.1l-6,3.4C220.7,190.9,219.8,191,219.4,190.7z"/>
				<path class="st1" d="M228.7,196.2l-6.1-3.5c-0.5-0.3-0.4-0.8,0.1-1.1l6-3.4c0.5-0.3,1.4-0.3,1.9-0.1l6.1,3.5
					c0.5,0.3,0.4,0.8-0.1,1.1l-6,3.4C230.1,196.4,229.3,196.4,228.7,196.2z"/>
				<path class="st1" d="M238.2,201.5l-6.1-3.5c-0.5-0.3-0.4-0.8,0.1-1.1l6-3.4c0.5-0.3,1.4-0.3,1.9-0.1l6.1,3.5
					c0.5,0.3,0.4,0.8-0.1,1.1l-6,3.4C239.5,201.8,238.6,201.9,238.2,201.5z"/>
				<path class="st1" d="M247.5,207l-6.1-3.5c-0.5-0.3-0.4-0.8,0.1-1.1l6-3.4c0.5-0.3,1.4-0.3,1.9-0.1l6.1,3.5
					c0.5,0.3,0.4,0.8-0.1,1.1l-6,3.4C248.9,207.2,248,207.2,247.5,207z"/>
				<path class="st1" d="M256.9,212.4l-6.1-3.5c-0.5-0.3-0.4-0.8,0.1-1.1l6-3.4c0.5-0.3,1.4-0.3,1.9-0.1l6.1,3.5
					c0.5,0.3,0.4,0.8-0.1,1.1l-6,3.4C258.2,212.6,257.4,212.7,256.9,212.4z"/>
				<path class="st1" d="M266.3,217.8l-6.1-3.5c-0.5-0.3-0.4-0.8,0.1-1.1l6-3.4c0.5-0.3,1.4-0.3,1.9-0.1l6.1,3.5
					c0.5,0.3,0.4,0.8-0.1,1.1l-6,3.4C267.7,218.1,266.8,218.1,266.3,217.8z"/>
				<path class="st1" d="M137.6,175.2l-17.9-10.3c-0.5-0.3-0.4-0.8,0.1-1.1l6-3.4c0.5-0.3,1.4-0.3,1.9-0.1l17.9,10.3
					c0.5,0.3,0.4,0.8-0.1,1.1l-6,3.4C138.9,175.4,138,175.4,137.6,175.2z"/>
				<path class="st1" d="M252.9,241.7l-17.9-10.3c-0.5-0.3-0.4-0.8,0.1-1.1l6-3.4c0.5-0.3,1.4-0.3,1.9-0.1l17.9,10.3
					c0.5,0.3,0.4,0.8-0.1,1.1l-6,3.4C254.3,242,253.4,242,252.9,241.7z"/>
				<path class="st1" d="M215.3,232l-6.1-3.5c-0.5-0.3-0.4-0.8,0.1-1.1l7.2-4.2c0.5-0.3,1.4-0.3,1.9-0.1l6.1,3.5
					c0.5,0.3,0.4,0.8-0.1,1.1l-7.2,4.2C216.7,232.2,215.9,232.3,215.3,232z"/>
				<path class="st1" d="M147.2,192.6l-9.8-5.6c-0.5-0.3-0.4-0.8,0.1-1.1l7.2-4.2c0.5-0.3,1.4-0.3,1.9-0.1l9.8,5.6
					c0.5,0.3,0.4,0.8-0.1,1.1l-7.2,4.2C148.5,192.9,147.6,193,147.2,192.6z"/>
				<path class="st1" d="M206.3,226.7l-9.8-5.6c-0.5-0.3-0.4-0.8,0.1-1.1l7.2-4.2c0.5-0.3,1.4-0.3,1.9-0.1l9.8,5.6
					c0.5,0.3,0.4,0.8-0.1,1.1l-7.2,4.2C207.6,227.1,206.7,227.1,206.3,226.7z"/>
				<path class="st1" d="M160.7,200.5l-9.8-5.6c-0.5-0.3-0.4-0.8,0.1-1.1l7.2-4.2c0.5-0.3,1.4-0.3,1.9-0.1l9.8,5.6
					c0.5,0.3,0.4,0.8-0.1,1.1l-7.2,4.2C162,200.7,161.2,200.8,160.7,200.5z"/>
				<path class="st1" d="M160.3,189.5l42.3,24.5c0.5,0.3,0.5,0.8,0,1.1l-7.3,4.2c-0.5,0.3-1.4,0.3-1.9,0l-42.3-24.5L160.3,189.5z"/>
				<path class="st1" d="M241.6,241.9l6.8,3.9c0.4,0.2,0.3,0.6-0.1,0.9l-2.9,1.7c-0.4,0.2-1.2,0.3-1.6,0.1l-6.8-3.9
					c-0.4-0.2-0.3-0.6,0.1-0.9l2.9-1.7C240.4,241.7,241.2,241.5,241.6,241.9z"/>
				<path class="st1" d="M232.1,236.4l6.8,3.9c0.4,0.2,0.3,0.6-0.1,0.9l-2.9,1.7c-0.4,0.2-1.2,0.3-1.6,0.1l-6.8-3.9
					c-0.4-0.2-0.3-0.6,0.1-0.9l2.9-1.7C231,236.2,231.7,236.2,232.1,236.4z"/>
				<path class="st1" d="M222.7,230.9l6.8,3.9c0.4,0.2,0.3,0.6-0.1,0.9l-2.9,1.7c-0.4,0.2-1.2,0.3-1.6,0.1l-6.8-3.9
					c-0.4-0.2-0.3-0.6,0.1-0.9l2.9-1.7C221.6,230.7,222.3,230.7,222.7,230.9z"/>
				<path class="st1" d="M237.3,233.4l6.8,3.9c0.4,0.2,0.3,0.6-0.1,0.9l-2.9,1.7c-0.4,0.2-1.2,0.3-1.6,0.1l-6.8-3.9
					c-0.4-0.2-0.3-0.6,0.1-0.9l2.9-1.7C236.2,233.2,236.9,233.2,237.3,233.4z"/>
			</g>
		</g>
	</g>
	<g>
		<path class="st7" d="M223.5,106.3l-44.6-25.7c-1.1-0.6-1.9-2.4-1.9-3.8V41.7c0-1.5,0.9-2.1,1.9-1.5L223.5,66
			c1.1,0.6,1.9,2.4,1.9,3.8v35.1C225.4,106.3,224.5,106.9,223.5,106.3z"/>
		<g>
			<path class="st8" d="M192.4,82.7l-0.3-0.2c-1.2-0.6-2.1-2.5-2.1-4V61.8c0-1.5,1-2.3,2.1-1.6l0.3,0.2c1.2,0.6,2.1,2.5,2.1,4v16.7
				C194.5,82.6,193.5,83.4,192.4,82.7z"/>
			<path class="st8" d="M201.3,87.9l-0.3-0.2c-1.2-0.6-2.1-2.5-2.1-4v-9.8c0-1.5,1-2.3,2.1-1.6l0.3,0.2c1.2,0.6,2.1,2.5,2.1,4v9.8
				C203.4,87.7,202.5,88.5,201.3,87.9z"/>
			<path class="st2" d="M210.3,93l-0.3-0.2c-1.2-0.6-2.1-2.5-2.1-4V65.5c0-1.5,1-2.3,2.1-1.6l0.3,0.2c1.2,0.6,2.1,2.5,2.1,4v23.3
				C212.4,93,211.5,93.6,210.3,93z"/>
		</g>
	</g>
	<g>
		<path class="st8" d="M265.9,96.9l-27.7-16c-1.1-0.6-1.8-2.1-1.8-3.5l0,0c0-1.4,0.9-2,1.8-1.4l27.7,16c1.1,0.6,1.8,2.1,1.8,3.5l0,0
			C267.8,96.9,267,97.5,265.9,96.9z"/>
		<path class="st8" d="M248.1,96.3l-9.9-5.7c-1.1-0.6-1.8-2.1-1.8-3.5l0,0c0-1.4,0.9-2,1.8-1.4l9.9,5.7c1.1,0.6,1.8,2.1,1.8,3.5l0,0
			C250,96.3,249.1,97,248.1,96.3z"/>
		<path class="st2" d="M264.7,106l-9.9-5.7c-1.1-0.6-1.8-2.1-1.8-3.5l0,0c0-1.4,0.9-2,1.8-1.4l9.9,5.7c1.1,0.6,1.8,2.1,1.8,3.5l0,0
			C266.6,105.9,265.7,106.5,264.7,106z"/>
		<path class="st8" d="M285.6,118l-14.2-8.2c-1.1-0.6-1.8-2.1-1.8-3.5l0,0c0-1.4,0.9-2,1.8-1.4l14.2,8.2c1.1,0.6,1.8,2.1,1.8,3.5
			l0,0C287.4,118,286.5,118.6,285.6,118z"/>
		<path class="st8" d="M272.8,120.4l-34.6-19.9c-1.1-0.6-1.8-2.1-1.8-3.5l0,0c0-1.4,0.9-2,1.8-1.4l34.6,19.9
			c1.1,0.6,1.8,2.1,1.8,3.5l0,0C274.7,120.4,273.9,121,272.8,120.4z"/>
		<path class="st2" d="M287.4,138.4l-49.1-28.2c-1.1-0.6-1.8-2.1-1.8-3.5l0,0c0-1.4,0.9-2,1.8-1.4l49.1,28.2
			c1.1,0.6,1.8,2.1,1.8,3.5l0,0C289.2,138.4,288.5,139,287.4,138.4z"/>
		<path class="st8" d="M291.6,111.7l-17.9-10.3c-1.1-0.6-1.8-2.1-1.8-3.5l0,0c0-1.4,0.9-2,1.8-1.4l17.9,10.3
			c1.1,0.6,1.8,2.1,1.8,3.5l0,0C293.4,111.7,292.5,112.2,291.6,111.7z"/>
	</g>
	<g>
		<polygon class="st2" points="185.5,112.4 176.8,107.4 176.8,117.5 185.5,122.5 		"/>
		<polygon class="st4" points="199.3,112 190.5,106.9 190.5,125.4 199.3,130.4 		"/>
		<polygon class="st4" points="213.2,125.3 204.4,120.2 204.4,133.4 213.2,138.5 		"/>
		<polygon class="st4" points="226.9,129.5 218.2,124.4 218.2,141.4 226.9,146.4 		"/>
		<polygon class="st2" points="240.7,138.5 232.1,133.4 232.1,149.3 240.7,154.4 		"/>
		<polygon class="st1" points="254.6,142.4 245.8,137.3 245.8,157.4 254.6,162.4 		"/>
		<polygon class="st4" points="268.4,148.2 259.6,143.2 259.6,165.3 268.4,170.3 		"/>
		<polygon class="st2" points="282.1,150.8 273.5,145.8 273.5,173.2 282.1,178.3 		"/>
	</g>
	<g>
		
			<rect x="337.5" y="107.8" transform="matrix(0.9687 -0.2482 0.2482 0.9687 -16.3386 87.8865)" class="st6" width="5.8" height="1.9"/>
		
			<rect x="334.7" y="110.5" transform="matrix(0.9687 -0.2482 0.2482 0.9687 -17.0925 87.2836)" class="st6" width="5.8" height="1.9"/>
		
			<rect x="331.9" y="113.3" transform="matrix(0.9687 -0.2482 0.2482 0.9687 -17.8812 86.6655)" class="st6" width="5.8" height="1.9"/>
		<rect x="329" y="116" transform="matrix(0.9687 -0.2483 0.2483 0.9687 -18.6501 86.0769)" class="st6" width="5.8" height="1.9"/>
	</g>
	<polygon class="st3" points="226.6,224.8 208.9,214.6 191.3,224.8 208.9,235 	"/>
	<polygon class="st3" points="171,226.6 153.4,216.4 135.7,226.6 153.4,236.8 	"/>
	<polygon class="st3" points="133.7,205.3 116.1,195.1 98.5,205.3 116.1,215.5 	"/>
	<g>
		<g>
			<g>
				<polygon class="st9" points="153.4,226.6 153.4,172.4 171,162.2 171,216.4 				"/>
				<polygon class="st10" points="171,162.2 153.4,152 135.7,162.2 153.4,172.4 				"/>
				<polygon class="st6" points="153.4,172.4 135.7,162.2 135.7,216.4 153.4,226.6 				"/>
				<polygon class="st2" points="153.4,226.6 153.4,172.4 171,162.2 171,216.4 				"/>
				<polygon class="st4" points="171,162.2 153.4,152 135.7,162.2 153.4,172.4 				"/>
			</g>
			<g>
				<polygon class="st1" points="190.8,248.5 190.8,218 208.4,207.8 208.4,238.3 				"/>
				<polygon class="st2" points="190.8,218 173.2,207.8 173.2,238.3 190.8,248.5 				"/>
				<polygon class="st4" points="208.4,207.8 190.8,197.7 173.2,207.8 190.8,218 				"/>
			</g>
			<g>
				<polygon class="st4" points="116.1,205.3 116.1,130.6 133.7,120.5 133.7,195.1 				"/>
				<polygon class="st2" points="116.1,130.6 98.5,120.5 98.5,195.1 116.1,205.3 				"/>
				<polygon class="st6" points="133.7,120.5 116.1,110.4 98.5,120.5 116.1,130.6 				"/>
			</g>
		</g>
	</g>
	<g>
		<g>
			<path class="st6" d="M105.6,162.7c0,0-2.9-1.5-4.7,0.8c-1.8,2.1-4.3,7.3-4.4,10.8c-0.1,3.4,2.8,3.2,4.4,2.5
				c1.7-0.9,6.6-7.9,6.9-9.3c0.3-1.4-0.3-3.3-0.9-3.6C106.6,163.3,105.6,162.7,105.6,162.7z"/>
			<path class="st4" d="M106.2,162l0.1,3c0,0.6-0.3,1.3-0.9,1.6c-0.5,0.3-1.3,0.5-2.3,0.3c-2.1-0.3-2.4-1-2.6-4
				C100.6,159.9,106.2,162,106.2,162z"/>
			<g>
				<path class="st6" d="M95,156.9c0,0-2.9-1.5-4.7,0.8c-1.8,2.1-4.3,7.3-4.4,10.8c-0.1,3.4,2.8,3.2,4.4,2.5
					c1.7-0.9,6.6-7.9,6.9-9.3c0.3-1.4-0.3-3.3-0.9-3.6C96,157.5,95,156.9,95,156.9z"/>
				<path class="st4" d="M95.6,156.2l0.1,3c0,0.6-0.3,1.3-0.9,1.6c-0.5,0.3-1.3,0.5-2.3,0.3c-2.1-0.3-2.4-1-2.6-4
					C89.9,154.1,95.6,156.2,95.6,156.2z"/>
				<path class="st1" d="M121.6,100.8c-0.9-14-15.1,2-15.1,2l-9.8,9.5l-8.8,9.7c-1.7,1.9-2.6,4.4-2.1,7l3.5,27.1
					c0.2,1.4,1.3,2.4,2.7,2.4c0.4,0,0.9,0,1.3-0.1c3.2-0.5,2.9-3.5,2.9-3.5l-0.6-25.4l18.6-11.2C114,118.4,122.4,114.9,121.6,100.8z
					"/>
			</g>
			<path class="st1" d="M132.2,106.2c-0.9-14-15.1,2-15.1,2l-9.8,9.5l-8.8,9.7c-1.7,1.9-2.6,4.4-2.1,7l3.5,27.1
				c0.2,1.4,1.3,2.4,2.7,2.4c0.4,0,0.9,0,1.3-0.1c3.2-0.5,2.9-3.5,2.9-3.5l-0.6-25.4l18.6-11.2C124.6,123.8,133.1,120.2,132.2,106.2
				z"/>
			<path class="st6" d="M123.7,61.3c10.8,4.5,10.6,10.9,10.6,10.9s-2.1,23.5-1.4,39.3c0.3,6.5-34.9,7.1-29.6-10.4
				c6.2-20.6,3.9-37.3,6.8-39.9C113,58.5,120.9,60.1,123.7,61.3z"/>
			
				<ellipse transform="matrix(0.2494 -0.9684 0.9684 0.2494 27.9765 167.1752)" class="st11" cx="121.8" cy="65.5" rx="4.1" ry="5.6"/>
			<path class="st5" d="M122.7,70.3c-0.6,0-1.3-0.1-1.9-0.2c-3.2-0.9-5.4-3.5-4.7-6c0.6-2.5,3.9-3.9,7.1-3c1.5,0.4,2.9,1.2,3.8,2.4
				c1,1.2,1.3,2.5,1,3.6C127.3,69,125.1,70.3,122.7,70.3z M120.9,61.8c-2,0-3.6,1-4.1,2.5c-0.5,1.9,1.3,4.1,4,4.7
				c2.7,0.6,5.4-0.3,5.8-2.3c0.2-0.9,0-1.9-0.8-2.8c-0.8-1-1.9-1.6-3.2-1.9C122.1,61.9,121.6,61.8,120.9,61.8z"/>
			<path class="st11" d="M119.4,60.7c0,0,0.1,0.4-0.1,3.9c-0.1,1.1,3.8,2,4.7,1.1s0.5-2,0.9-5.7C125,56.3,119.4,60.7,119.4,60.7z"/>
			<path class="st12" d="M124.8,60.1c0,0-1,3.4-5.6,4.7l0.1-3.1L124.8,60.1z"/>
			
				<ellipse transform="matrix(0.9682 -0.2503 0.2503 0.9682 -9.5653 31.6466)" class="st11" cx="119.6" cy="53.4" rx="8.4" ry="8.4"/>
			<path class="st12" d="M121.6,53.7c0,0-4.6,1.9-7.8,2c-3.2,0-2.5-2.7-2.5-2.7l9.4-1.4L121.6,53.7z"/>
			<path class="st13" d="M112.8,54.3c0,0,4-1.7,7.5-1c0.9,0.2,1.6,0.6,2.1,1.3c0.2,0.2,0.4,0.4,0.6,0.4c0.6,0.1,1.6-2.5,2.9-2.5
				c1.2-0.1,2,0.8,1.1,2.4s-0.6,3.3-0.2,3.6c0.4,0.3,5.3-3.4,1.1-11.9c-4.3-8.5-15.1-3.9-16.8-2.1c0,0-1.8,1.5-3.2,0.2
				C107.7,44.6,106.1,56.8,112.8,54.3z"/>
			<path class="st11" d="M128.3,89.4v6.3c0,0.8-0.3,1.4-0.9,1.9l-13.1,11.9l1.5,2.3l17.3-12.5c0.9-0.5,1.3-1.5,1.4-2.5l1.2-11
				L128.3,89.4z"/>
			<path class="st6" d="M133.5,69c0,0,4,6,5.5,21.7c0,0-6.8,2.1-10.6,1C124.5,90.3,133.5,69,133.5,69z"/>
			<path class="st2" d="M127.6,76.5c0,0-1.5,8.3-1.6,12.2c0,1.1,0.6,2,1.6,2.4l0,0V76.5z"/>
		</g>
		<g>
			<path class="st6" d="M124.2,117.8l-2.9-0.4l-18.7-10.7c-0.6-0.3-1.6-0.3-2.4,0.1L87,114.3l-1.7-0.2v1.7l0,0
				c0,0.2,0.1,0.4,0.4,0.6l21.1,12.2c0.6,0.3,1.6,0.3,2.4-0.1l14.4-8.3c0.4-0.2,0.5-0.5,0.5-0.8l0,0
				C124.2,119.6,124.2,117.8,124.2,117.8z"/>
			<path class="st2" d="M110.2,110.9l-1.3-0.8H94.3l-7.2,4.2l-1.7-0.2v1.7l0,0c0,0.2,0.1,0.4,0.4,0.6l21.1,12.2
				c0.3,0.2,0.8,0.2,1.2,0.2L110.2,110.9z"/>
			<path class="st6" d="M86.2,114.2l-0.8-0.1v1.7l0,0c0,0.2,0.1,0.4,0.4,0.6l0.3,0.2C86.2,116.7,86.2,114.2,86.2,114.2z"/>
			<path class="st5" d="M107.1,128.7c0.5,0.2,1.4,0.2,1.9-0.1v-3h-1.9V128.7z"/>
			<path class="st5" d="M106.9,126.9l-21.1-12.2c-0.6-0.3-0.5-1,0.2-1.4l14.4-8.3c0.6-0.4,1.7-0.4,2.4-0.1l21.1,12.2
				c0.6,0.3,0.5,1-0.2,1.4l-14.4,8.3C108.6,127.2,107.5,127.2,106.9,126.9z"/>
			<path class="st4" d="M106.6,125.1L89,115c-0.5-0.3-0.4-0.8,0.1-1.1l7.7-4.3c0.5-0.3,1.4-0.3,1.9-0.1l17.6,10.1
				c0.5,0.3,0.4,0.8-0.1,1.1l-7.7,4.3C108,125.3,107.1,125.3,106.6,125.1z"/>
		</g>
		<path class="st11" d="M101.2,104.7l-0.2,1.5c-0.2,1.3-0.1,2.5,0.1,3.8l0.2,1.3c0.1,0.8,0.8,1.3,1.4,1.4l0,0
			c0.5,0.1,1.1-0.3,1.2-0.9l0.3-3.1c0,0,0.8,1.1,1.2,1.1c0.4,0-0.4-3.1-1.3-4.9C103.2,103,101.2,104.7,101.2,104.7z"/>
		<path class="st11" d="M108.3,81.5L106,86c-0.5,1.1-0.9,2.3-1,3.4l-1,15.3l-3-0.1l-1.4-17.2c0-0.5,0-1.1,0.1-1.6l1.5-8.7
			L108.3,81.5z"/>
		<g>
			<path class="st1" d="M106.2,128.1l-1.7-2.4L86,115c-0.6-0.3-1.1-1.3-1.1-2V97.7l-1.1-1.4l1-0.5l0,0c0.2-0.1,0.4-0.1,0.8,0
				l21.1,12.2c0.6,0.3,1.1,1.3,1.1,2v16.6c0,0.4-0.1,0.8-0.4,0.9l0,0L106.2,128.1z"/>
			<path class="st2" d="M93.4,119.3l-1.3-0.8l-7.3-12.7v-8.3l-1.1-1.4l1-0.5l0,0c0.2-0.1,0.4-0.1,0.8,0l21.1,12.2
				c0.3,0.2,0.6,0.5,0.8,1L93.4,119.3z"/>
			<path class="st6" d="M84.2,96.9l-0.4-0.6l1-0.5l0,0c0.2-0.1,0.4-0.1,0.8,0l0.3,0.2L84.2,96.9z"/>
			<path class="st3" d="M106.7,108.1c0.4,0.4,0.9,1.1,0.9,1.8l-2,1.2l-1-1.7L106.7,108.1z"/>
			<path class="st6" d="M105.5,108.6L84.4,96.3c-0.6-0.3-1.1,0-1.1,0.9v16.6c0,0.8,0.4,1.7,1.1,2l21.1,12.2c0.6,0.3,1.1,0,1.1-0.9
				v-16.6C106.6,109.8,106.1,108.9,105.5,108.6z"/>
		</g>
		<path class="st11" d="M115.9,111.8l-0.3,0.8c-0.4,0.9-1,1.5-1.7,1.9l-2.1,1.3c-0.6,0.4-1.5,0.4-2.1,0c0,0,0,0-0.1,0
			c-0.6-0.4-0.8-1.4-0.2-1.9l2.1-2.3c0,0-1.2,1-1.6,0.5c-0.2-0.3,1.2-1.6,2.3-1.7c1.1,0,2.1-1,2.1-1L115.9,111.8z"/>
		<path class="st6" d="M110.3,61c0,0-8,8.7-11.3,16.7c0,0,2.8,4.9,9.4,6.9C115.3,86.6,110.3,61,110.3,61z"/>
		<path class="st2" d="M107,84.1l1.3-12.5l-3.1,11.8C105.8,83.6,106.4,83.9,107,84.1z"/>
		<path class="st5" d="M116.3,59.2l-2.1-0.6c0,0,1.1,1.6,2.6,2c1.5,0.4,1.7-0.9,1.7-0.9L116.3,59.2z"/>
	</g>
	<g>
		<path class="st0" d="M97.5,281.2c-14.5-8.4-38-8.4-52.6,0c-14.5,8.4-14.5,22,0,30.4c14.5,8.4,38,8.4,52.6,0
			C111.9,303.2,111.9,289.6,97.5,281.2z M83.2,303.3c-6.6,3.9-17.5,3.9-24.1,0c-6.6-3.9-6.6-10.1,0-13.9c6.6-3.9,17.5-3.9,24.1,0
			C89.9,293.2,89.9,299.5,83.2,303.3z"/>
		<g>
			<g>
				<path class="st1" d="M39.4,276.3l13.2,0.2c1-1.3,2.4-2.5,4.2-3.5c7.3-4.2,18.8-4.5,26.7-1l7.8-7.4l12.1,0.2
					c-0.6-0.4-1.2-0.8-1.8-1.2c-16.8-9.8-44.2-9.8-61,0c-3.1,1.8-5.6,3.8-7.6,5.9L39.4,276.3z"/>
				<polygon class="st6" points="103.6,245.5 103.6,264.7 91.4,264.6 91.4,245.3 				"/>
				<polygon class="st1" points="83.5,252.7 83.5,272 91.4,264.6 91.4,245.3 				"/>
				<path class="st1" d="M52.7,257.2v19.2l17.4-14.2l13.4,9.7v-19.2l-12.3-6c0,0-17.1,5.3-17.9,5.5
					C52.4,252.4,52.7,257.2,52.7,257.2z"/>
				<polygon class="st1" points="39.4,257 39.4,276.3 52.7,276.5 52.7,257.2 				"/>
				<polygon class="st6" points="33.1,250.2 33.1,269.5 39.4,276.3 39.4,257 				"/>
				<path class="st4" d="M39.4,257l13.2,0.2c1-1.3,2.4-2.5,4.2-3.5c7.3-4.2,18.8-4.5,26.7-1l7.8-7.4l12.1,0.2
					c-0.6-0.4-1.2-0.8-1.8-1.2c-16.8-9.8-44.2-9.8-61,0c-3.1,1.8-5.6,3.8-7.6,5.9L39.4,257z"/>
			</g>
			<g>
				<path class="st6" d="M87.5,255.1v17.7L99,270c0,0-0.6-10.3-1-10.6C97.8,259.1,87.5,255.1,87.5,255.1z"/>
				<g>
					<path class="st1" d="M78.9,272.8V292l1.3,1.3l8-4.6c0,0-1.3-14.7-1.4-15C86.6,273.4,78.9,272.8,78.9,272.8z"/>
					<path class="st2" d="M94.4,267.8l-7,6.5c5.8,4.6,5,11-2,15.1c-1.9,1.2-4.2,1.9-6.6,2.6l7.2,7.6l-6.3,6c8-1,15.8-3.2,22-6.8
						c14.5-8.4,16.5-21.1,6.1-30.8L94.4,267.8z"/>
					<polygon class="st2" points="79.6,286.4 79.6,305.6 95.4,299.6 114.3,281.6 114.2,261.1 94.2,276.9 					"/>
					<path class="st4" d="M94.4,248.6l-7,6.5c5.8,4.6,5,11-2,15.1c-1.9,1.2-4.2,1.9-6.6,2.6l7.2,7.6l-6.3,6c8-1,15.8-3.2,22-6.8
						c14.5-8.4,16.5-21.1,6.1-30.8L94.4,248.6z"/>
				</g>
			</g>
			<g>
				<path class="st2" d="M79.6,299.6l-6.3-6.8c-5.9,0.3-11.9-0.8-16.4-3.3c-4.6-2.7-6.5-6.3-5.8-9.9l-15-0.2l-5.8-6.1
					c-5,8.7-1.6,18.7,10.4,25.5c8.8,5,20.5,7.5,32,7.3L79.6,299.6z"/>
				<polygon class="st2" points="72.7,286.9 72.7,306.1 28.1,281.3 28.1,262.1 34.6,264.7 				"/>
				<polygon class="st1" points="79.6,280.4 79.6,299.6 72.7,306.1 72.7,286.9 				"/>
				<path class="st6" d="M79.6,280.4l-6.3-6.8c-5.9,0.3-11.9-0.8-16.4-3.3c-4.6-2.7-6.5-6.3-5.8-9.9l-15-0.2l-5.8-6.1
					c-5,8.7-1.6,18.7,10.4,25.5c8.8,5,20.5,7.5,32,7.3L79.6,280.4z"/>
			</g>
		</g>
	</g>
	<g>
		<path class="st6" d="M105.7,19.9l1.2-1.9c0,0,1,0.5,2,0.2c0.9-0.2,1.5-1,2.1-2.3c2-4.3,5.8-4.6,7.5-4.2l-0.5,2.1l0.3-1.1l-0.2,1.1
			c-0.3-0.1-3.2-0.6-4.9,2.9c-0.9,1.8-2,3-3.5,3.4C107.5,20.8,105.8,20,105.7,19.9z"/>
	</g>
	<path class="st4" d="M69.8,94c-5.7,0-10.4-4.6-10.4-10.4c0-5.7,4.6-10.4,10.4-10.4c5.7,0,10.4,4.6,10.4,10.4
		C80.1,89.4,75.5,94,69.8,94z M69.8,75.5c-4.5,0-8,3.6-8,8c0,4.5,3.6,8,8,8c4.4,0,8-3.6,8-8C77.8,79.2,74.2,75.5,69.8,75.5z"/>
	<path class="st6" d="M9,236.9c-4.1,0-7.3-3.3-7.3-7.3c0-4.1,3.3-7.3,7.3-7.3c4.1,0,7.3,3.3,7.3,7.3C16.4,233.6,13,236.9,9,236.9z
		 M9,224.5c-2.8,0-5,2.3-5,5c0,2.8,2.3,5,5,5s5-2.3,5-5C14,226.7,11.9,224.5,9,224.5z"/>
	<path class="st6" d="M54.6,154.5l-4.9-10.1l10.1-4.9l4.9,10.1L54.6,154.5z M52.6,145.4l3,6.1l6.1-3l-3-6.1L52.6,145.4z"/>
	
		<rect x="300.4" y="44.3" transform="matrix(0.8974 -0.4412 0.4412 0.8974 10.3955 138.5057)" class="st6" width="5.1" height="5.1"/>
	<g>
		<g>
			<path class="st14" d="M45.5,169.7l-22.6-13.1c-0.4-0.2-0.9-0.3-1.2-0.1l0,0l-2.3,1.3c0,0,1,0.3,1.5,0.5v16.5
				c0,1.4,0.9,2.9,1.8,3.4l21.8,12.5v1.9l2.3-1.3l0,0c0.3-0.2,0.6-0.8,0.6-1.5v-16.8C47.4,171.8,46.5,170.2,45.5,169.7z"/>
			<path class="st13" d="M43.3,192.6l-22.6-13.1c-1-0.5-1.8-2.1-1.8-3.4v-16.8c0-1.4,0.9-1.9,1.8-1.4L43.3,171
				c1,0.5,1.8,2.1,1.8,3.4v16.8C45.1,192.6,44.4,193.3,43.3,192.6z"/>
		</g>
		<g>
			<path class="st5" d="M28.3,173.8c0,1-0.6,1.4-1.5,0.9c-0.9-0.5-1.5-1.7-1.5-2.7s0.6-1.4,1.5-0.9
				C27.5,171.6,28.3,172.8,28.3,173.8z"/>
			<path class="st5" d="M32.9,176.4c0,1-0.6,1.4-1.5,0.9c-0.9-0.5-1.5-1.7-1.5-2.7s0.6-1.4,1.5-0.9S32.9,175.5,32.9,176.4z"/>
			<path class="st5" d="M37.5,179.1c0,1-0.6,1.4-1.5,0.9c-0.9-0.5-1.5-1.7-1.5-2.7s0.6-1.4,1.5-0.9C36.9,177,37.5,178.2,37.5,179.1z
				"/>
		</g>
	</g>
	<g>
		<g>
			<path class="st6" d="M262.9,14.8L240.3,1.7c-0.4-0.2-0.9-0.3-1.2-0.1l0,0l-2.3,1.3c0,0,1,0.3,1.5,0.5V20c0,1.4,0.9,2.9,1.8,3.4
				l21.7,12.5v1.9l2.3-1.3l0,0c0.3-0.2,0.6-0.8,0.6-1.5V18.2C264.8,17,264,15.4,262.9,14.8z"/>
			<path class="st4" d="M260.7,37.8l-22.6-13.1c-1-0.5-1.8-2.1-1.8-3.4V4.4c0-1.4,0.9-1.9,1.8-1.4l22.6,13.1c1,0.5,1.8,2.1,1.8,3.4
				v16.8C262.5,37.8,261.8,38.4,260.7,37.8z"/>
		</g>
		<g>
			<path class="st5" d="M245.7,18.9c0,1-0.6,1.4-1.5,0.9c-0.9-0.5-1.5-1.7-1.5-2.7c0-1,0.6-1.4,1.5-0.9
				C245,16.7,245.7,17.9,245.7,18.9z"/>
			<path class="st5" d="M250.3,21.6c0,1-0.6,1.4-1.5,0.9c-0.9-0.5-1.5-1.7-1.5-2.7s0.6-1.4,1.5-0.9
				C249.6,19.4,250.3,20.6,250.3,21.6z"/>
			<path class="st5" d="M255,24.3c0,1-0.6,1.4-1.5,0.9c-0.9-0.5-1.5-1.7-1.5-2.7c0-1,0.6-1.4,1.5-0.9C254.3,22.1,255,23.3,255,24.3z
				"/>
		</g>
	</g>
	<g>
		<polygon class="st0" points="261,298.3 274.3,290.6 287.6,298.3 274.3,305.9 		"/>
		<polygon class="st0" points="289.2,281.8 302.5,274 315.8,281.8 302.5,289.4 		"/>
		<polygon class="st0" points="317.4,265.6 330.7,258 344,265.6 330.7,273.3 		"/>
		<g>
			<g>
				<g>
					<polygon class="st9" points="302.5,281.8 302.5,240.8 289.2,233.1 289.2,274 					"/>
					<polygon class="st14" points="302.5,240.8 315.8,233.1 315.8,274 302.5,281.8 					"/>
					<polygon class="st13" points="302.5,281.8 302.5,240.8 289.2,233.1 289.2,274 					"/>
				</g>
				<g>
					<polygon class="st13" points="274.3,298.3 274.3,275.2 261,267.5 261,290.6 					"/>
					<polygon class="st14" points="274.3,275.2 287.6,267.5 287.6,290.6 274.3,298.3 					"/>
					<polygon class="st13" points="261,267.5 274.3,259.9 287.6,267.5 274.3,275.2 					"/>
				</g>
				<g>
					<polygon class="st13" points="330.7,265.6 330.7,209.3 317.4,201.5 317.4,258 					"/>
					<polygon class="st14" points="330.7,209.3 344,201.5 344,258 330.7,265.6 					"/>
					<polygon class="st13" points="317.4,201.5 330.7,193.9 344,201.5 330.7,209.3 					"/>
				</g>
			</g>
			<polygon class="st13" points="289.2,233.1 302.5,225.4 315.8,233.1 302.5,240.8 			"/>
		</g>
	</g>
</g>
</svg>
